<svg width="36" height="36" viewBox="0 0 36 36" fill="none" xmlns="http://www.w3.org/2000/svg">
<g opacity="0.1">
<path d="M28.416 16.668C27.7605 11.505 23.34 7.5 18 7.5C13.866 7.5 10.275 9.9165 8.6355 13.725C5.4135 14.688 3 17.73 3 21C3 25.1355 6.3645 28.5 10.5 28.5H27C30.309 28.5 33 25.809 33 22.5C32.9977 21.1554 32.5449 19.8504 31.714 18.7932C30.8831 17.7361 29.722 16.9879 28.416 16.668ZM27 25.5H10.5C8.019 25.5 6 23.481 6 21C6 18.894 7.7985 16.866 10.0095 16.4775L10.881 16.3245L11.169 15.4875C12.2235 12.411 14.8425 10.5 18 10.5C22.1355 10.5 25.5 13.8645 25.5 18V19.5H27C28.6545 19.5 30 20.8455 30 22.5C30 24.1545 28.6545 25.5 27 25.5Z" fill="#243252"/>
</g>
</svg>
