<svg width="36" height="36" viewBox="0 0 36 36" fill="none" xmlns="http://www.w3.org/2000/svg">
<g opacity="1">
<path d="M18 9C23.3055 9 28.2555 11.0295 31.9395 14.7135L34.0605 12.5925C29.811 8.3415 24.1065 6 18 6C11.8935 6.0015 6.18895 8.3415 1.93945 12.5925L4.06045 14.7135C7.74445 11.0295 12.6945 9 18 9ZM26.5065 21.4605C21.8955 16.8495 14.1045 16.8495 9.49345 21.4605L11.6145 23.5815C15.075 20.121 20.925 20.121 24.3855 23.5815L26.5065 21.4605Z" fill="#243252"/>
<path d="M30.6554 16.9395C23.7974 10.0785 12.2039 10.0785 5.34595 16.9395L7.46695 19.0605C13.1774 13.35 22.8239 13.35 28.5344 19.0605L30.6554 16.9395Z" fill="#243252"/>
<path d="M18 30C19.6569 30 21 28.6569 21 27C21 25.3431 19.6569 24 18 24C16.3431 24 15 25.3431 15 27C15 28.6569 16.3431 30 18 30Z" fill="#243252"/>
</g>
</svg>
