<svg width="36" height="36" viewBox="0 0 36 36" fill="none" xmlns="http://www.w3.org/2000/svg">
<g opacity="1">
<path d="M28.5 10.5H27V3H9V10.5H7.5C5.019 10.5 3 12.519 3 15V25.5C3 27.1545 4.3455 28.5 6 28.5H9V33H27V28.5H30C31.6545 28.5 33 27.1545 33 25.5V15C33 12.519 30.981 10.5 28.5 10.5ZM12 6H24V10.5H12V6ZM24 30H12V24H24V30ZM30 25.5H27V21H9V25.5H6V15C6 14.1735 6.6735 13.5 7.5 13.5H28.5C29.328 13.5 30 14.1735 30 15V25.5Z" fill="#243252"/>
<path d="M21 15H27V18H21V15Z" fill="#243252"/>
</g>
</svg>
