<svg width="36" height="36" viewBox="0 0 36 36" fill="none" xmlns="http://www.w3.org/2000/svg">
<path d="M4.5 6V13.5H7.5V7.5H13.5V4.5H6C5.60218 4.5 5.22064 4.65804 4.93934 4.93934C4.65804 5.22064 4.5 5.60218 4.5 6ZM31.5 13.5V6C31.5 5.60218 31.342 5.22064 31.0607 4.93934C30.7794 4.65804 30.3978 4.5 30 4.5H22.5V7.5H28.5V13.5H31.5ZM28.5 28.5H22.5V31.5H30C30.3978 31.5 30.7794 31.342 31.0607 31.0607C31.342 30.7794 31.5 30.3978 31.5 30V22.5H28.5V28.5ZM13.5 31.5V28.5H7.5V22.5H4.5V30C4.5 30.3978 4.65804 30.7794 4.93934 31.0607C5.22064 31.342 5.60218 31.5 6 31.5H13.5ZM3 16.5H33V19.5H3V16.5Z" fill="#243252"/>
</svg>
